<?xml version="1.0" standalone="no"?><!DOCTYPE svg PUBLIC "-//W3C//DTD SVG 1.1//EN" "http://www.w3.org/Graphics/SVG/1.1/DTD/svg11.dtd"><svg t="1750564713418" class="icon" viewBox="0 0 1024 1024" version="1.1" xmlns="http://www.w3.org/2000/svg" p-id="85800" xmlns:xlink="http://www.w3.org/1999/xlink" width="200" height="200"><path d="M512 34.34666667c-206.08 0-373.12 160.42666667-373.12 358.18666666 0 197.86666667 373.12 597.01333333 373.12 597.01333334S885.12 590.29333333 885.12 392.53333333c0-197.76-167.04-358.18666667-373.12-358.18666666z m0 597.01333333c-137.38666667 0-248.74666667-106.88-248.74666667-238.82666667 0-131.84 111.36-238.82666667 248.74666667-238.82666666 137.38666667 0 248.74666667 106.88 248.74666667 238.82666666S649.38666667 631.36 512 631.36z m0-358.18666667c-68.69333333 0-124.37333333 53.44-124.37333333 119.36 0 65.92 55.68 119.36 124.37333333 119.36 68.69333333 0 124.37333333-53.44 124.37333333-119.36 0-65.92-55.68-119.36-124.37333333-119.36z" fill="#1890FF" p-id="85801"></path></svg>